<mxfile host="Electron" modified="2020-12-30T07:23:49.537Z" agent="5.0 (X11; Linux x86_64) AppleWebKit/537.36 (KHTML, like Gecko) draw.io/13.3.9 Chrome/83.0.4103.119 Electron/9.0.5 Safari/537.36" etag="ENWJE2ZFd5RavEpQH5jX" compressed="false" version="13.3.9" type="device">
  <diagram id="BroF2KEGtGU2BPiS64ID" name="Page-1">
    <mxGraphModel dx="692" dy="424" grid="1" gridSize="10" guides="0" tooltips="1" connect="1" arrows="1" fold="1" page="1" pageScale="1" pageWidth="850" pageHeight="1100" math="0" shadow="0">
      <root>
        <mxCell id="0" />
        <mxCell id="1" parent="0" />
        <mxCell id="JqnvDqgvgrJRzDIJXPdY-8" style="edgeStyle=orthogonalEdgeStyle;rounded=0;orthogonalLoop=1;jettySize=auto;html=1;" edge="1" parent="1" source="JqnvDqgvgrJRzDIJXPdY-1" target="JqnvDqgvgrJRzDIJXPdY-6">
          <mxGeometry relative="1" as="geometry" />
        </mxCell>
        <mxCell id="JqnvDqgvgrJRzDIJXPdY-1" value="GUI syscall 1" style="rounded=0;whiteSpace=wrap;html=1;" vertex="1" parent="1">
          <mxGeometry x="80" y="120" width="80" height="20" as="geometry" />
        </mxCell>
        <mxCell id="JqnvDqgvgrJRzDIJXPdY-2" value="" style="endArrow=none;dashed=1;html=1;" edge="1" parent="1">
          <mxGeometry width="50" height="50" relative="1" as="geometry">
            <mxPoint x="180" y="320" as="sourcePoint" />
            <mxPoint x="180" y="60" as="targetPoint" />
          </mxGeometry>
        </mxCell>
        <mxCell id="JqnvDqgvgrJRzDIJXPdY-6" value="1" style="ellipse;shape=cloud;whiteSpace=wrap;html=1;" vertex="1" parent="1">
          <mxGeometry x="200" y="120" width="20" height="20" as="geometry" />
        </mxCell>
        <mxCell id="JqnvDqgvgrJRzDIJXPdY-9" style="edgeStyle=orthogonalEdgeStyle;rounded=0;orthogonalLoop=1;jettySize=auto;html=1;" edge="1" source="JqnvDqgvgrJRzDIJXPdY-10" target="JqnvDqgvgrJRzDIJXPdY-11" parent="1">
          <mxGeometry relative="1" as="geometry" />
        </mxCell>
        <mxCell id="JqnvDqgvgrJRzDIJXPdY-10" value="GUI syscall 2" style="rounded=0;whiteSpace=wrap;html=1;" vertex="1" parent="1">
          <mxGeometry x="80" y="160" width="80" height="20" as="geometry" />
        </mxCell>
        <mxCell id="JqnvDqgvgrJRzDIJXPdY-11" value="2" style="ellipse;shape=cloud;whiteSpace=wrap;html=1;" vertex="1" parent="1">
          <mxGeometry x="200" y="160" width="20" height="20" as="geometry" />
        </mxCell>
        <mxCell id="JqnvDqgvgrJRzDIJXPdY-21" style="edgeStyle=orthogonalEdgeStyle;rounded=0;orthogonalLoop=1;jettySize=auto;html=1;" edge="1" source="JqnvDqgvgrJRzDIJXPdY-22" target="JqnvDqgvgrJRzDIJXPdY-23" parent="1">
          <mxGeometry relative="1" as="geometry" />
        </mxCell>
        <mxCell id="JqnvDqgvgrJRzDIJXPdY-22" value="GUI syscall 3" style="rounded=0;whiteSpace=wrap;html=1;" vertex="1" parent="1">
          <mxGeometry x="80" y="200" width="80" height="20" as="geometry" />
        </mxCell>
        <mxCell id="JqnvDqgvgrJRzDIJXPdY-23" value="3" style="ellipse;shape=cloud;whiteSpace=wrap;html=1;" vertex="1" parent="1">
          <mxGeometry x="200" y="200" width="20" height="20" as="geometry" />
        </mxCell>
        <mxCell id="JqnvDqgvgrJRzDIJXPdY-25" style="edgeStyle=orthogonalEdgeStyle;rounded=0;orthogonalLoop=1;jettySize=auto;html=1;" edge="1" source="JqnvDqgvgrJRzDIJXPdY-26" target="JqnvDqgvgrJRzDIJXPdY-27" parent="1">
          <mxGeometry relative="1" as="geometry" />
        </mxCell>
        <mxCell id="JqnvDqgvgrJRzDIJXPdY-26" value="GUI syscall 4" style="rounded=0;whiteSpace=wrap;html=1;" vertex="1" parent="1">
          <mxGeometry x="80" y="240" width="80" height="20" as="geometry" />
        </mxCell>
        <mxCell id="JqnvDqgvgrJRzDIJXPdY-27" value="4" style="ellipse;shape=cloud;whiteSpace=wrap;html=1;" vertex="1" parent="1">
          <mxGeometry x="200" y="240" width="20" height="20" as="geometry" />
        </mxCell>
        <mxCell id="JqnvDqgvgrJRzDIJXPdY-28" value="user process" style="text;html=1;align=center;verticalAlign=middle;resizable=0;points=[];autosize=1;" vertex="1" parent="1">
          <mxGeometry x="80" y="50" width="80" height="20" as="geometry" />
        </mxCell>
        <mxCell id="JqnvDqgvgrJRzDIJXPdY-29" value="kernel" style="text;html=1;align=center;verticalAlign=middle;resizable=0;points=[];autosize=1;" vertex="1" parent="1">
          <mxGeometry x="180" y="50" width="50" height="20" as="geometry" />
        </mxCell>
        <mxCell id="JqnvDqgvgrJRzDIJXPdY-34" value="GUI batch 1" style="rounded=0;whiteSpace=wrap;html=1;" vertex="1" parent="1">
          <mxGeometry x="360" y="120" width="80" height="20" as="geometry" />
        </mxCell>
        <mxCell id="JqnvDqgvgrJRzDIJXPdY-35" value="" style="endArrow=none;dashed=1;html=1;" edge="1" parent="1">
          <mxGeometry width="50" height="50" relative="1" as="geometry">
            <mxPoint x="460" y="320" as="sourcePoint" />
            <mxPoint x="460" y="60" as="targetPoint" />
          </mxGeometry>
        </mxCell>
        <mxCell id="JqnvDqgvgrJRzDIJXPdY-39" value="GUI batch 2" style="rounded=0;whiteSpace=wrap;html=1;" vertex="1" parent="1">
          <mxGeometry x="360" y="160" width="80" height="20" as="geometry" />
        </mxCell>
        <mxCell id="JqnvDqgvgrJRzDIJXPdY-43" value="GUI batch 3" style="rounded=0;whiteSpace=wrap;html=1;" vertex="1" parent="1">
          <mxGeometry x="360" y="200" width="80" height="20" as="geometry" />
        </mxCell>
        <mxCell id="JqnvDqgvgrJRzDIJXPdY-47" value="GUI batch 4" style="rounded=0;whiteSpace=wrap;html=1;" vertex="1" parent="1">
          <mxGeometry x="360" y="240" width="80" height="20" as="geometry" />
        </mxCell>
        <mxCell id="JqnvDqgvgrJRzDIJXPdY-50" value="user process" style="text;html=1;align=center;verticalAlign=middle;resizable=0;points=[];autosize=1;" vertex="1" parent="1">
          <mxGeometry x="360" y="50" width="80" height="20" as="geometry" />
        </mxCell>
        <mxCell id="JqnvDqgvgrJRzDIJXPdY-51" value="kernel" style="text;html=1;align=center;verticalAlign=middle;resizable=0;points=[];autosize=1;" vertex="1" parent="1">
          <mxGeometry x="460" y="50" width="50" height="20" as="geometry" />
        </mxCell>
        <mxCell id="JqnvDqgvgrJRzDIJXPdY-57" value="other syscall 5" style="rounded=0;whiteSpace=wrap;html=1;" vertex="1" parent="1">
          <mxGeometry x="360" y="280" width="80" height="20" as="geometry" />
        </mxCell>
        <mxCell id="JqnvDqgvgrJRzDIJXPdY-62" value="5" style="ellipse;shape=cloud;whiteSpace=wrap;html=1;" vertex="1" parent="1">
          <mxGeometry x="480" y="280" width="20" height="20" as="geometry" />
        </mxCell>
        <mxCell id="JqnvDqgvgrJRzDIJXPdY-64" value="1" style="ellipse;shape=cloud;whiteSpace=wrap;html=1;" vertex="1" parent="1">
          <mxGeometry x="480" y="120" width="20" height="20" as="geometry" />
        </mxCell>
        <mxCell id="JqnvDqgvgrJRzDIJXPdY-65" value="2" style="ellipse;shape=cloud;whiteSpace=wrap;html=1;" vertex="1" parent="1">
          <mxGeometry x="480" y="160" width="20" height="20" as="geometry" />
        </mxCell>
        <mxCell id="JqnvDqgvgrJRzDIJXPdY-66" value="3" style="ellipse;shape=cloud;whiteSpace=wrap;html=1;" vertex="1" parent="1">
          <mxGeometry x="480" y="200" width="20" height="20" as="geometry" />
        </mxCell>
        <mxCell id="JqnvDqgvgrJRzDIJXPdY-67" value="4" style="ellipse;shape=cloud;whiteSpace=wrap;html=1;" vertex="1" parent="1">
          <mxGeometry x="480" y="240" width="20" height="20" as="geometry" />
        </mxCell>
        <mxCell id="JqnvDqgvgrJRzDIJXPdY-71" value="" style="endArrow=classic;html=1;" edge="1" parent="1" source="JqnvDqgvgrJRzDIJXPdY-66" target="JqnvDqgvgrJRzDIJXPdY-67">
          <mxGeometry width="50" height="50" relative="1" as="geometry">
            <mxPoint x="510" y="270" as="sourcePoint" />
            <mxPoint x="560" y="220" as="targetPoint" />
          </mxGeometry>
        </mxCell>
        <mxCell id="JqnvDqgvgrJRzDIJXPdY-72" value="" style="endArrow=classic;html=1;" edge="1" parent="1" source="JqnvDqgvgrJRzDIJXPdY-67" target="JqnvDqgvgrJRzDIJXPdY-62">
          <mxGeometry width="50" height="50" relative="1" as="geometry">
            <mxPoint x="500" y="229.99999999999994" as="sourcePoint" />
            <mxPoint x="500" y="250.00000000000006" as="targetPoint" />
          </mxGeometry>
        </mxCell>
        <mxCell id="JqnvDqgvgrJRzDIJXPdY-73" value="" style="endArrow=classic;html=1;" edge="1" parent="1" source="JqnvDqgvgrJRzDIJXPdY-65" target="JqnvDqgvgrJRzDIJXPdY-66">
          <mxGeometry width="50" height="50" relative="1" as="geometry">
            <mxPoint x="500" y="270.00000000000006" as="sourcePoint" />
            <mxPoint x="500" y="290.00000000000006" as="targetPoint" />
          </mxGeometry>
        </mxCell>
        <mxCell id="JqnvDqgvgrJRzDIJXPdY-74" value="" style="endArrow=classic;html=1;" edge="1" parent="1" source="JqnvDqgvgrJRzDIJXPdY-64" target="JqnvDqgvgrJRzDIJXPdY-65">
          <mxGeometry width="50" height="50" relative="1" as="geometry">
            <mxPoint x="500" y="190.00000000000006" as="sourcePoint" />
            <mxPoint x="500" y="209.99999999999994" as="targetPoint" />
          </mxGeometry>
        </mxCell>
        <mxCell id="JqnvDqgvgrJRzDIJXPdY-75" value="" style="endArrow=classic;html=1;" edge="1" parent="1" source="JqnvDqgvgrJRzDIJXPdY-62">
          <mxGeometry width="50" height="50" relative="1" as="geometry">
            <mxPoint x="600" y="360" as="sourcePoint" />
            <mxPoint x="350" y="320" as="targetPoint" />
            <Array as="points">
              <mxPoint x="490" y="310" />
              <mxPoint x="350" y="310" />
            </Array>
          </mxGeometry>
        </mxCell>
        <mxCell id="JqnvDqgvgrJRzDIJXPdY-76" value="" style="endArrow=classic;html=1;" edge="1" parent="1" source="JqnvDqgvgrJRzDIJXPdY-99" target="JqnvDqgvgrJRzDIJXPdY-1">
          <mxGeometry width="50" height="50" relative="1" as="geometry">
            <mxPoint x="70" y="120" as="sourcePoint" />
            <mxPoint x="70" y="120" as="targetPoint" />
            <Array as="points">
              <mxPoint x="210" y="110" />
              <mxPoint x="70" y="110" />
              <mxPoint x="70" y="130" />
            </Array>
          </mxGeometry>
        </mxCell>
        <mxCell id="JqnvDqgvgrJRzDIJXPdY-77" value="" style="endArrow=classic;html=1;" edge="1" parent="1" source="JqnvDqgvgrJRzDIJXPdY-6" target="JqnvDqgvgrJRzDIJXPdY-10">
          <mxGeometry width="50" height="50" relative="1" as="geometry">
            <mxPoint x="10" y="200" as="sourcePoint" />
            <mxPoint x="60" y="150" as="targetPoint" />
            <Array as="points">
              <mxPoint x="210" y="150" />
              <mxPoint x="70" y="150" />
              <mxPoint x="70" y="170" />
            </Array>
          </mxGeometry>
        </mxCell>
        <mxCell id="JqnvDqgvgrJRzDIJXPdY-78" value="" style="endArrow=classic;html=1;" edge="1" parent="1" source="JqnvDqgvgrJRzDIJXPdY-11" target="JqnvDqgvgrJRzDIJXPdY-22">
          <mxGeometry width="50" height="50" relative="1" as="geometry">
            <mxPoint x="210" y="180" as="sourcePoint" />
            <mxPoint x="80" y="210" as="targetPoint" />
            <Array as="points">
              <mxPoint x="210" y="190" />
              <mxPoint x="70" y="190" />
              <mxPoint x="70" y="210" />
            </Array>
          </mxGeometry>
        </mxCell>
        <mxCell id="JqnvDqgvgrJRzDIJXPdY-79" value="" style="endArrow=classic;html=1;" edge="1" parent="1" source="JqnvDqgvgrJRzDIJXPdY-23" target="JqnvDqgvgrJRzDIJXPdY-26">
          <mxGeometry width="50" height="50" relative="1" as="geometry">
            <mxPoint x="210" y="220" as="sourcePoint" />
            <mxPoint x="80" y="250" as="targetPoint" />
            <Array as="points">
              <mxPoint x="210" y="230" />
              <mxPoint x="70" y="230" />
              <mxPoint x="70" y="250" />
            </Array>
          </mxGeometry>
        </mxCell>
        <mxCell id="JqnvDqgvgrJRzDIJXPdY-80" value="" style="endArrow=classic;html=1;" edge="1" parent="1" target="JqnvDqgvgrJRzDIJXPdY-87">
          <mxGeometry width="50" height="50" relative="1" as="geometry">
            <mxPoint x="210" y="260" as="sourcePoint" />
            <mxPoint x="70" y="280" as="targetPoint" />
            <Array as="points">
              <mxPoint x="210" y="270" />
              <mxPoint x="70" y="270" />
              <mxPoint x="70" y="290" />
            </Array>
          </mxGeometry>
        </mxCell>
        <mxCell id="JqnvDqgvgrJRzDIJXPdY-81" value="" style="endArrow=classic;html=1;" edge="1" parent="1" source="JqnvDqgvgrJRzDIJXPdY-100" target="JqnvDqgvgrJRzDIJXPdY-34">
          <mxGeometry width="50" height="50" relative="1" as="geometry">
            <mxPoint x="350" y="120" as="sourcePoint" />
            <mxPoint x="130" y="140" as="targetPoint" />
            <Array as="points">
              <mxPoint x="490" y="110" />
              <mxPoint x="350" y="110" />
              <mxPoint x="350" y="130" />
            </Array>
          </mxGeometry>
        </mxCell>
        <mxCell id="JqnvDqgvgrJRzDIJXPdY-82" value="" style="endArrow=classic;html=1;" edge="1" parent="1" source="JqnvDqgvgrJRzDIJXPdY-34" target="JqnvDqgvgrJRzDIJXPdY-39">
          <mxGeometry width="50" height="50" relative="1" as="geometry">
            <mxPoint x="300" y="210" as="sourcePoint" />
            <mxPoint x="350" y="160" as="targetPoint" />
            <Array as="points">
              <mxPoint x="450" y="130" />
              <mxPoint x="450" y="150" />
              <mxPoint x="350" y="150" />
              <mxPoint x="350" y="170" />
            </Array>
          </mxGeometry>
        </mxCell>
        <mxCell id="JqnvDqgvgrJRzDIJXPdY-83" value="" style="endArrow=classic;html=1;" edge="1" parent="1">
          <mxGeometry width="50" height="50" relative="1" as="geometry">
            <mxPoint x="440" y="170" as="sourcePoint" />
            <mxPoint x="360" y="210" as="targetPoint" />
            <Array as="points">
              <mxPoint x="450" y="170" />
              <mxPoint x="450" y="190" />
              <mxPoint x="350" y="190" />
              <mxPoint x="350" y="210" />
            </Array>
          </mxGeometry>
        </mxCell>
        <mxCell id="JqnvDqgvgrJRzDIJXPdY-84" value="" style="endArrow=classic;html=1;" edge="1" parent="1">
          <mxGeometry width="50" height="50" relative="1" as="geometry">
            <mxPoint x="440" y="210" as="sourcePoint" />
            <mxPoint x="360" y="250" as="targetPoint" />
            <Array as="points">
              <mxPoint x="450" y="210" />
              <mxPoint x="450" y="230" />
              <mxPoint x="350" y="230" />
              <mxPoint x="350" y="250" />
            </Array>
          </mxGeometry>
        </mxCell>
        <mxCell id="JqnvDqgvgrJRzDIJXPdY-85" value="" style="endArrow=classic;html=1;" edge="1" parent="1">
          <mxGeometry width="50" height="50" relative="1" as="geometry">
            <mxPoint x="440" y="250" as="sourcePoint" />
            <mxPoint x="360" y="290" as="targetPoint" />
            <Array as="points">
              <mxPoint x="450" y="250" />
              <mxPoint x="450" y="270" />
              <mxPoint x="350" y="270" />
              <mxPoint x="350" y="290" />
            </Array>
          </mxGeometry>
        </mxCell>
        <mxCell id="JqnvDqgvgrJRzDIJXPdY-86" value="" style="endArrow=classic;html=1;" edge="1" parent="1" source="JqnvDqgvgrJRzDIJXPdY-57" target="JqnvDqgvgrJRzDIJXPdY-64">
          <mxGeometry width="50" height="50" relative="1" as="geometry">
            <mxPoint x="310" y="280" as="sourcePoint" />
            <mxPoint x="360" y="230" as="targetPoint" />
            <Array as="points">
              <mxPoint x="470" y="290" />
              <mxPoint x="470" y="130" />
            </Array>
          </mxGeometry>
        </mxCell>
        <mxCell id="JqnvDqgvgrJRzDIJXPdY-87" value="other syscall 5" style="rounded=0;whiteSpace=wrap;html=1;" vertex="1" parent="1">
          <mxGeometry x="80" y="280" width="80" height="20" as="geometry" />
        </mxCell>
        <mxCell id="JqnvDqgvgrJRzDIJXPdY-88" value="5" style="ellipse;shape=cloud;whiteSpace=wrap;html=1;" vertex="1" parent="1">
          <mxGeometry x="200" y="280" width="20" height="20" as="geometry" />
        </mxCell>
        <mxCell id="JqnvDqgvgrJRzDIJXPdY-89" value="" style="endArrow=classic;html=1;" edge="1" parent="1" source="JqnvDqgvgrJRzDIJXPdY-87" target="JqnvDqgvgrJRzDIJXPdY-88">
          <mxGeometry width="50" height="50" relative="1" as="geometry">
            <mxPoint x="100" y="380" as="sourcePoint" />
            <mxPoint x="150" y="330" as="targetPoint" />
          </mxGeometry>
        </mxCell>
        <mxCell id="JqnvDqgvgrJRzDIJXPdY-90" value="" style="endArrow=classic;html=1;" edge="1" parent="1" source="JqnvDqgvgrJRzDIJXPdY-88">
          <mxGeometry width="50" height="50" relative="1" as="geometry">
            <mxPoint x="210" y="300" as="sourcePoint" />
            <mxPoint x="70" y="320" as="targetPoint" />
            <Array as="points">
              <mxPoint x="210" y="310" />
              <mxPoint x="70" y="310" />
            </Array>
          </mxGeometry>
        </mxCell>
        <mxCell id="JqnvDqgvgrJRzDIJXPdY-93" value="&lt;b&gt;Delay GUI syscalls&lt;/b&gt;" style="endArrow=classic;html=1;strokeWidth=4;fillColor=#f5f5f5;strokeColor=#666666;" edge="1" parent="1">
          <mxGeometry y="20" width="50" height="50" relative="1" as="geometry">
            <mxPoint x="240" y="210" as="sourcePoint" />
            <mxPoint x="320" y="210" as="targetPoint" />
            <mxPoint as="offset" />
          </mxGeometry>
        </mxCell>
        <mxCell id="JqnvDqgvgrJRzDIJXPdY-95" value="&lt;b&gt;GUI Syscalls Flow Path&lt;/b&gt; v.s &lt;b&gt;Delayed GUI Syscalls (GUI Batch) Flow Path&lt;/b&gt;" style="text;html=1;align=center;verticalAlign=middle;resizable=0;points=[];autosize=1;" vertex="1" parent="1">
          <mxGeometry x="80" y="20" width="420" height="20" as="geometry" />
        </mxCell>
        <mxCell id="JqnvDqgvgrJRzDIJXPdY-97" value="other syscall 0" style="rounded=0;whiteSpace=wrap;html=1;" vertex="1" parent="1">
          <mxGeometry x="80" y="80" width="80" height="20" as="geometry" />
        </mxCell>
        <mxCell id="JqnvDqgvgrJRzDIJXPdY-98" value="other syscall 0" style="rounded=0;whiteSpace=wrap;html=1;" vertex="1" parent="1">
          <mxGeometry x="360" y="80" width="80" height="20" as="geometry" />
        </mxCell>
        <mxCell id="JqnvDqgvgrJRzDIJXPdY-99" value="0" style="ellipse;shape=cloud;whiteSpace=wrap;html=1;" vertex="1" parent="1">
          <mxGeometry x="200" y="80" width="20" height="20" as="geometry" />
        </mxCell>
        <mxCell id="JqnvDqgvgrJRzDIJXPdY-100" value="0" style="ellipse;shape=cloud;whiteSpace=wrap;html=1;" vertex="1" parent="1">
          <mxGeometry x="480" y="80" width="20" height="20" as="geometry" />
        </mxCell>
        <mxCell id="JqnvDqgvgrJRzDIJXPdY-102" value="" style="endArrow=classic;html=1;strokeWidth=1;" edge="1" parent="1" source="JqnvDqgvgrJRzDIJXPdY-97" target="JqnvDqgvgrJRzDIJXPdY-99">
          <mxGeometry width="50" height="50" relative="1" as="geometry">
            <mxPoint x="10" y="170" as="sourcePoint" />
            <mxPoint x="60" y="120" as="targetPoint" />
          </mxGeometry>
        </mxCell>
        <mxCell id="JqnvDqgvgrJRzDIJXPdY-103" value="" style="endArrow=classic;html=1;strokeWidth=1;" edge="1" parent="1" target="JqnvDqgvgrJRzDIJXPdY-97">
          <mxGeometry width="50" height="50" relative="1" as="geometry">
            <mxPoint x="70" y="80" as="sourcePoint" />
            <mxPoint x="210" y="100" as="targetPoint" />
            <Array as="points">
              <mxPoint x="70" y="90" />
            </Array>
          </mxGeometry>
        </mxCell>
        <mxCell id="JqnvDqgvgrJRzDIJXPdY-105" value="" style="endArrow=classic;html=1;strokeWidth=1;" edge="1" parent="1" source="JqnvDqgvgrJRzDIJXPdY-98" target="JqnvDqgvgrJRzDIJXPdY-100">
          <mxGeometry width="50" height="50" relative="1" as="geometry">
            <mxPoint x="300" y="140" as="sourcePoint" />
            <mxPoint x="350" y="90" as="targetPoint" />
          </mxGeometry>
        </mxCell>
        <mxCell id="JqnvDqgvgrJRzDIJXPdY-106" value="" style="endArrow=classic;html=1;strokeWidth=1;" edge="1" parent="1" target="JqnvDqgvgrJRzDIJXPdY-98">
          <mxGeometry width="50" height="50" relative="1" as="geometry">
            <mxPoint x="350" y="80" as="sourcePoint" />
            <mxPoint x="350" y="90" as="targetPoint" />
            <Array as="points">
              <mxPoint x="350" y="90" />
            </Array>
          </mxGeometry>
        </mxCell>
      </root>
    </mxGraphModel>
  </diagram>
</mxfile>
